<svg width="220" height="33" viewBox="0 0 220 33" fill="none" xmlns="http://www.w3.org/2000/svg">
<g clip-path="url(#clip0_28656_1956)">
<path d="M12.4591 18.7108H14.337C14.337 17.038 12.9761 15.6771 11.3033 15.6771C9.63045 15.6771 8.26953 17.038 8.26953 18.7108H10.1474C10.1474 18.0735 10.6659 17.555 11.3033 17.555C11.9406 17.555 12.4591 18.0735 12.4591 18.7108Z" fill="#7792CD"/>
<path d="M20.7457 15.6771C19.0728 15.6771 17.7119 17.038 17.7119 18.7108H19.5898C19.5898 18.0735 20.1083 17.555 20.7457 17.555C21.383 17.555 21.9015 18.0735 21.9015 18.7108H23.7794C23.7794 17.038 22.4185 15.6771 20.7457 15.6771Z" fill="#7792CD"/>
<path d="M28.0089 13.5235C26.7985 10.0118 24.1093 7.2117 20.6461 5.85761C20.3951 3.52926 18.4186 1.71027 16.0247 1.71027C13.6307 1.71027 11.6542 3.52926 11.4032 5.85761C7.94001 7.21163 5.25092 10.0118 4.04055 13.5235C1.80347 13.577 0 15.4136 0 17.6635C0 19.9136 1.80372 21.7503 4.04143 21.8034C4.84867 24.1324 6.34705 26.2153 8.31408 27.7249C10.5426 29.4352 13.2089 30.3392 16.0248 30.3392C18.8407 30.3392 21.5069 29.4353 23.7355 27.7249C25.7026 26.2153 27.2009 24.1324 28.0082 21.8034C30.2458 21.7503 32.0496 19.9136 32.0496 17.6635C32.0495 15.4136 30.2461 13.577 28.0089 13.5235ZM13.2537 6.35913C13.2537 4.83121 14.4968 3.58816 16.0247 3.58816C17.5527 3.58816 18.7958 4.83121 18.7958 6.35913V10.8769H16.0247C14.4968 10.8769 13.2537 9.63387 13.2537 8.10595V6.35913ZM27.9083 19.9267H26.6091L26.4158 20.61C25.7886 22.8265 24.4306 24.8242 22.5921 26.2352C20.6945 27.6915 18.4235 28.4613 16.0247 28.4613C13.626 28.4613 11.355 27.6916 9.45735 26.2352C7.61882 24.8242 6.26091 22.8265 5.63376 20.6101L5.4404 19.9268H4.14114C2.89322 19.9267 1.8779 18.9114 1.8779 17.6635C1.8779 16.4155 2.89322 15.4002 4.14114 15.4002H5.4404L5.63376 14.7169C6.48564 11.7061 8.58895 9.24033 11.3758 7.91347V8.10595C11.3758 10.6693 13.4613 12.7548 16.0247 12.7548H20.6737V7.91347C23.4605 9.24033 25.5638 11.7062 26.4158 14.7169L26.6091 15.4002H27.9083C29.1563 15.4002 30.1716 16.4155 30.1716 17.6635C30.1716 18.9114 29.1563 19.9267 27.9083 19.9267Z" fill="#7792CD"/>
<path d="M16.0256 24.3495C14.8258 24.3495 13.8496 23.3733 13.8496 22.1735H11.9717C11.9717 24.4088 13.7903 26.2274 16.0256 26.2274C18.2609 26.2274 20.0796 24.4088 20.0796 22.1735H18.2017C18.2017 23.3733 17.2255 24.3495 16.0256 24.3495Z" fill="#7792CD"/>
</g>
<path d="M46.1724 5.81169C47.2496 5.81169 48.2455 6.10639 49.1601 6.6958C50.0747 7.26489 50.8064 8.04738 51.3552 9.04327C51.9039 10.0392 52.1783 11.157 52.1783 12.3968C52.1783 13.6366 51.9039 14.7646 51.3552 15.7808C50.8064 16.7767 50.0747 17.5795 49.1601 18.1893C48.2455 18.7787 47.2496 19.0734 46.1724 19.0734H40.2885L40.5324 18.5856V25.5975C40.5324 26.0447 40.3901 26.4207 40.1056 26.7255C39.8414 27.0101 39.4857 27.1523 39.0386 27.1523C38.6117 27.1523 38.2561 27.0101 37.9715 26.7255C37.7073 26.4207 37.5752 26.0447 37.5752 25.5975V7.36651C37.5752 6.91937 37.7276 6.55353 38.0325 6.26899C38.3374 5.96412 38.7032 5.81169 39.13 5.81169H46.1724ZM46.1724 16.1467C46.7009 16.1467 47.1785 15.9739 47.6053 15.6284C48.0524 15.2829 48.4081 14.8256 48.6723 14.2565C48.9569 13.6874 49.0991 13.0675 49.0991 12.3968C49.0991 11.7261 48.9569 11.1164 48.6723 10.5676C48.4081 10.0188 48.0524 9.58187 47.6053 9.25668C47.1785 8.91117 46.7009 8.73841 46.1724 8.73841H40.2275L40.5324 8.28111V16.543L40.258 16.1467H46.1724Z" fill="#2C4073"/>
<path d="M61.0132 27.4572C59.3263 27.4572 57.863 27.1117 56.6232 26.4207C55.3834 25.7093 54.418 24.7439 53.7269 23.5244C53.0562 22.2846 52.7209 20.8721 52.7209 19.2868C52.7209 17.4982 53.0765 15.9739 53.7879 14.7138C54.5196 13.4334 55.4647 12.4578 56.6232 11.7871C57.7817 11.096 59.0113 10.7505 60.312 10.7505C61.3079 10.7505 62.253 10.9538 63.1473 11.3603C64.0416 11.7464 64.8342 12.2952 65.5253 13.0065C66.2366 13.6976 66.7955 14.5207 67.202 15.476C67.6085 16.4109 67.8219 17.4373 67.8422 18.5551C67.8219 18.9616 67.6593 19.297 67.3545 19.5612C67.0496 19.8254 66.6939 19.9575 66.2874 19.9575H54.4281L53.6964 17.3661H65.1594L64.5802 17.9149V17.1527C64.5395 16.4414 64.3058 15.8215 63.879 15.293C63.4522 14.7443 62.9237 14.3276 62.2937 14.0431C61.6636 13.7382 61.0031 13.5858 60.312 13.5858C59.7023 13.5858 59.1129 13.6874 58.5438 13.8907C57.9951 14.0736 57.4971 14.3784 57.05 14.8053C56.6232 15.2321 56.2776 15.8012 56.0134 16.5125C55.7695 17.2035 55.6476 18.0673 55.6476 19.1039C55.6476 20.2217 55.8813 21.1973 56.3488 22.0306C56.8162 22.8639 57.4463 23.5143 58.239 23.9817C59.0316 24.4289 59.9056 24.6524 60.8608 24.6524C61.6128 24.6524 62.2327 24.5813 62.7205 24.439C63.2083 24.2764 63.6148 24.0834 63.94 23.8598C64.2651 23.6362 64.5497 23.4228 64.7936 23.2196C65.0984 23.0366 65.4033 22.9452 65.7082 22.9452C66.074 22.9452 66.3789 23.0773 66.6228 23.3415C66.8667 23.5854 66.9886 23.8801 66.9886 24.2256C66.9886 24.6728 66.7651 25.0793 66.3179 25.4451C65.7692 25.9735 65.007 26.441 64.0314 26.8475C63.0762 27.254 62.0701 27.4572 61.0132 27.4572Z" fill="#2C4073"/>
<path d="M82.72 4.59222C83.1671 4.59222 83.533 4.7345 83.8175 5.01904C84.102 5.30358 84.2443 5.67958 84.2443 6.14704V25.5975C84.2443 26.0447 84.102 26.4207 83.8175 26.7255C83.533 27.0101 83.1671 27.1523 82.72 27.1523C82.2932 27.1523 81.9273 27.0101 81.6225 26.7255C81.3379 26.4207 81.1956 26.0447 81.1956 25.5975V23.4025L81.8359 23.433C81.8359 23.7988 81.6834 24.2155 81.3786 24.6829C81.094 25.1301 80.6977 25.567 80.1896 25.9939C79.6815 26.4207 79.0819 26.7763 78.3909 27.0609C77.6998 27.3251 76.958 27.4572 76.1653 27.4572C74.763 27.4572 73.5028 27.1015 72.385 26.3902C71.2672 25.6585 70.383 24.6728 69.7327 23.433C69.0823 22.1729 68.7571 20.7298 68.7571 19.1039C68.7571 17.4779 69.0823 16.045 69.7327 14.8053C70.383 13.5451 71.257 12.5594 72.3545 11.848C73.4724 11.1164 74.7121 10.7505 76.0739 10.7505C76.9275 10.7505 77.7202 10.8928 78.4518 11.1773C79.2038 11.4619 79.8542 11.8277 80.403 12.2749C80.9517 12.722 81.3786 13.1996 81.6834 13.7077C81.9883 14.1955 82.1407 14.663 82.1407 15.1101L81.1956 15.2016V6.14704C81.1956 5.69991 81.3379 5.33407 81.6225 5.04952C81.9273 4.74466 82.2932 4.59222 82.72 4.59222ZM76.5007 24.6524C77.4763 24.6524 78.3197 24.4086 79.0311 23.9208C79.7628 23.433 80.3319 22.7724 80.7383 21.9391C81.1448 21.1058 81.3481 20.1607 81.3481 19.1039C81.3481 18.047 81.1448 17.1019 80.7383 16.2686C80.3319 15.4353 79.7628 14.7748 79.0311 14.287C78.2994 13.7992 77.4559 13.5553 76.5007 13.5553C75.5658 13.5553 74.7325 13.7992 74.0008 14.287C73.2894 14.7748 72.7204 15.4353 72.2935 16.2686C71.8871 17.1019 71.6838 18.047 71.6838 19.1039C71.6838 20.1607 71.8871 21.1058 72.2935 21.9391C72.7204 22.7724 73.2894 23.433 74.0008 23.9208C74.7325 24.4086 75.5658 24.6524 76.5007 24.6524Z" fill="#2C4073"/>
<path d="M89.6731 25.5975C89.6731 26.0447 89.5308 26.4207 89.2463 26.7255C88.9617 27.0101 88.5959 27.1523 88.1487 27.1523C87.7219 27.1523 87.3561 27.0101 87.0512 26.7255C86.7667 26.4207 86.6244 26.0447 86.6244 25.5975V12.5492C86.6244 12.1021 86.7667 11.7363 87.0512 11.4517C87.3561 11.1469 87.7219 10.9944 88.1487 10.9944C88.5959 10.9944 88.9617 11.1469 89.2463 11.4517C89.5308 11.7363 89.6731 12.1021 89.6731 12.5492V25.5975ZM88.1183 8.9823C87.5288 8.9823 87.102 8.88068 86.8378 8.67744C86.5736 8.45387 86.4415 8.08803 86.4415 7.57992V7.09213C86.4415 6.58402 86.5838 6.22834 86.8683 6.0251C87.1528 5.82185 87.5797 5.72023 88.1487 5.72023C88.7585 5.72023 89.1954 5.83201 89.4597 6.05558C89.7239 6.25883 89.856 6.60434 89.856 7.09213V7.57992C89.856 8.10835 89.7137 8.47419 89.4292 8.67744C89.165 8.88068 88.728 8.9823 88.1183 8.9823Z" fill="#2C4073"/>
<path d="M105.206 10.8725C105.653 10.8725 106.019 11.0249 106.303 11.3298C106.588 11.6143 106.73 11.9802 106.73 12.4273V25.5975C106.73 26.0447 106.588 26.4207 106.303 26.7255C106.019 27.0101 105.653 27.1523 105.206 27.1523C104.779 27.1523 104.413 27.0101 104.108 26.7255C103.824 26.4207 103.681 26.0447 103.681 25.5975V23.4025L104.322 23.4939C104.322 23.8598 104.169 24.2663 103.864 24.7134C103.58 25.1606 103.184 25.5975 102.675 26.0243C102.167 26.4308 101.568 26.7763 100.877 27.0609C100.186 27.3251 99.4438 27.4572 98.6512 27.4572C97.2488 27.4572 95.9887 27.1015 94.8708 26.3902C93.753 25.6585 92.8689 24.6626 92.2185 23.4025C91.5681 22.1424 91.2429 20.7095 91.2429 19.1039C91.2429 17.4576 91.5681 16.0146 92.2185 14.7748C92.8689 13.5147 93.7428 12.5289 94.8403 11.8176C95.9582 11.1062 97.198 10.7505 98.5597 10.7505C99.4336 10.7505 100.236 10.8928 100.968 11.1773C101.72 11.4619 102.371 11.8277 102.919 12.2749C103.468 12.722 103.885 13.1996 104.169 13.7077C104.474 14.1955 104.627 14.663 104.627 15.1101L103.681 15.2016V12.4273C103.681 12.0005 103.824 11.6346 104.108 11.3298C104.413 11.0249 104.779 10.8725 105.206 10.8725ZM98.9865 24.6524C99.9418 24.6524 100.785 24.4086 101.517 23.9208C102.249 23.433 102.818 22.7724 103.224 21.9391C103.631 21.0855 103.834 20.1404 103.834 19.1039C103.834 18.047 103.631 17.1019 103.224 16.2686C102.818 15.4353 102.249 14.7748 101.517 14.287C100.785 13.7992 99.9418 13.5553 98.9865 13.5553C98.0516 13.5553 97.2183 13.7992 96.4866 14.287C95.7752 14.7748 95.2062 15.4353 94.7794 16.2686C94.3729 17.1019 94.1696 18.047 94.1696 19.1039C94.1696 20.1404 94.3729 21.0855 94.7794 21.9391C95.2062 22.7724 95.7752 23.433 96.4866 23.9208C97.2183 24.4086 98.0516 24.6524 98.9865 24.6524Z" fill="#2C4073"/>
<path d="M109.08 11.2993H116.244C116.651 11.2993 116.986 11.4416 117.25 11.7261C117.535 11.9903 117.677 12.3257 117.677 12.7322C117.677 13.1183 117.535 13.4435 117.25 13.7077C116.986 13.972 116.651 14.1041 116.244 14.1041H109.08C108.673 14.1041 108.328 13.972 108.043 13.7077C107.779 13.4232 107.647 13.0878 107.647 12.7017C107.647 12.2952 107.779 11.9598 108.043 11.6956C108.328 11.4314 108.673 11.2993 109.08 11.2993ZM112.281 7.33602C112.728 7.33602 113.094 7.48846 113.378 7.79332C113.663 8.07786 113.805 8.4437 113.805 8.89084V23.0366C113.805 23.4025 113.866 23.6972 113.988 23.9208C114.11 24.1443 114.273 24.2968 114.476 24.3781C114.699 24.4594 114.923 24.5 115.147 24.5C115.37 24.5 115.563 24.4594 115.726 24.3781C115.909 24.2968 116.122 24.2561 116.366 24.2561C116.61 24.2561 116.834 24.3679 117.037 24.5915C117.24 24.815 117.342 25.1199 117.342 25.5061C117.342 25.9939 117.077 26.3902 116.549 26.695C116.021 26.9999 115.451 27.1523 114.842 27.1523C114.496 27.1523 114.09 27.1219 113.622 27.0609C113.155 26.9999 112.697 26.8475 112.25 26.6036C111.824 26.3597 111.468 25.9735 111.183 25.4451C110.899 24.8963 110.757 24.1342 110.757 23.1586V8.89084C110.757 8.4437 110.899 8.07786 111.183 7.79332C111.488 7.48846 111.854 7.33602 112.281 7.33602Z" fill="#2C4073"/>
<path d="M120.869 27.1523C120.422 27.1523 120.057 27.0101 119.772 26.7255C119.487 26.4207 119.345 26.0447 119.345 25.5975V12.6712C119.345 12.224 119.487 11.8582 119.772 11.5737C120.057 11.2688 120.422 11.1164 120.869 11.1164C121.296 11.1164 121.652 11.2688 121.937 11.5737C122.241 11.8582 122.394 12.224 122.394 12.6712V16.0857L122.089 14.7748C122.252 14.2057 122.495 13.6772 122.821 13.1895C123.166 12.7017 123.573 12.2749 124.04 11.909C124.508 11.5432 125.026 11.2586 125.595 11.0554C126.184 10.8521 126.794 10.7505 127.424 10.7505C127.953 10.7505 128.41 10.8928 128.796 11.1773C129.182 11.4619 129.375 11.8176 129.375 12.2444C129.375 12.7931 129.233 13.1996 128.948 13.4638C128.664 13.7077 128.349 13.8297 128.003 13.8297C127.699 13.8297 127.404 13.7687 127.119 13.6468C126.835 13.5045 126.499 13.4334 126.113 13.4334C125.686 13.4334 125.249 13.5451 124.802 13.7687C124.355 13.9923 123.949 14.3276 123.583 14.7748C123.217 15.2016 122.922 15.7097 122.699 16.2991C122.495 16.8885 122.394 17.5491 122.394 18.2807V25.5975C122.394 26.0447 122.241 26.4207 121.937 26.7255C121.652 27.0101 121.296 27.1523 120.869 27.1523Z" fill="#2C4073"/>
<path d="M133.245 25.5975C133.245 26.0447 133.103 26.4207 132.819 26.7255C132.534 27.0101 132.168 27.1523 131.721 27.1523C131.294 27.1523 130.928 27.0101 130.624 26.7255C130.339 26.4207 130.197 26.0447 130.197 25.5975V12.5492C130.197 12.1021 130.339 11.7363 130.624 11.4517C130.928 11.1469 131.294 10.9944 131.721 10.9944C132.168 10.9944 132.534 11.1469 132.819 11.4517C133.103 11.7363 133.245 12.1021 133.245 12.5492V25.5975ZM131.691 8.9823C131.101 8.9823 130.674 8.88068 130.41 8.67744C130.146 8.45387 130.014 8.08803 130.014 7.57992V7.09213C130.014 6.58402 130.156 6.22834 130.441 6.0251C130.725 5.82185 131.152 5.72023 131.721 5.72023C132.331 5.72023 132.768 5.83201 133.032 6.05558C133.296 6.25883 133.428 6.60434 133.428 7.09213V7.57992C133.428 8.10835 133.286 8.47419 133.002 8.67744C132.737 8.88068 132.3 8.9823 131.691 8.9823Z" fill="#2C4073"/>
<path d="M142.742 10.7505C143.839 10.7505 144.815 10.8725 145.668 11.1164C146.522 11.3399 147.183 11.6651 147.65 12.0919C148.138 12.4984 148.382 12.9761 148.382 13.5248C148.382 13.8703 148.28 14.1955 148.077 14.5004C147.874 14.7849 147.569 14.9272 147.162 14.9272C146.878 14.9272 146.634 14.8764 146.431 14.7748C146.248 14.6731 146.075 14.5512 145.912 14.4089C145.75 14.2667 145.547 14.1244 145.303 13.9821C145.079 13.8602 144.744 13.7585 144.297 13.6772C143.87 13.5959 143.484 13.5553 143.138 13.5553C142.061 13.5553 141.126 13.7992 140.333 14.287C139.561 14.7748 138.951 15.4353 138.504 16.2686C138.077 17.1019 137.864 18.047 137.864 19.1039C137.864 20.1607 138.077 21.1058 138.504 21.9391C138.951 22.7724 139.551 23.433 140.303 23.9208C141.075 24.4086 141.969 24.6524 142.986 24.6524C143.595 24.6524 144.093 24.6118 144.48 24.5305C144.866 24.4289 145.201 24.3069 145.486 24.1647C145.79 23.9817 146.044 23.7988 146.248 23.6159C146.471 23.4127 146.776 23.311 147.162 23.311C147.609 23.311 147.945 23.4533 148.168 23.7378C148.412 24.0021 148.534 24.3374 148.534 24.7439C148.534 25.191 148.26 25.628 147.711 26.0548C147.183 26.4613 146.471 26.7967 145.577 27.0609C144.683 27.3251 143.697 27.4572 142.62 27.4572C141.035 27.4572 139.652 27.0914 138.474 26.3597C137.315 25.628 136.411 24.6321 135.76 23.372C135.13 22.1119 134.815 20.6892 134.815 19.1039C134.815 17.4982 135.151 16.0755 135.821 14.8357C136.492 13.5756 137.427 12.5797 138.626 11.848C139.825 11.1164 141.197 10.7505 142.742 10.7505Z" fill="#2C4073"/>
<path d="M172.004 7.03116C172.451 7.25472 172.705 7.60024 172.766 8.0677C172.847 8.53516 172.735 8.96198 172.431 9.34814C172.207 9.65301 171.912 9.82577 171.546 9.86641C171.201 9.90706 170.855 9.83593 170.51 9.65301C169.92 9.34814 169.301 9.10425 168.65 8.92133C168 8.73841 167.309 8.64695 166.577 8.64695C165.419 8.64695 164.372 8.84003 163.437 9.2262C162.522 9.59203 161.73 10.1306 161.059 10.842C160.388 11.533 159.87 12.3562 159.504 13.3114C159.159 14.2667 158.986 15.3235 158.986 16.482C158.986 17.7625 159.179 18.9006 159.565 19.8965C159.951 20.8721 160.48 21.7054 161.15 22.3964C161.841 23.0671 162.644 23.5752 163.559 23.9208C164.494 24.246 165.5 24.4085 166.577 24.4085C167.268 24.4085 167.939 24.3273 168.589 24.1647C169.26 24.0021 169.89 23.7582 170.479 23.433C170.845 23.2501 171.201 23.1891 171.546 23.2501C171.912 23.2907 172.207 23.4635 172.431 23.7683C172.776 24.1951 172.898 24.6321 172.796 25.0793C172.715 25.5061 172.461 25.8313 172.034 26.0548C171.526 26.3394 170.967 26.5833 170.357 26.7865C169.748 26.9898 169.128 27.1523 168.498 27.2743C167.868 27.3962 167.227 27.4572 166.577 27.4572C165.114 27.4572 163.732 27.2133 162.431 26.7255C161.13 26.2377 159.972 25.5264 158.955 24.5915C157.939 23.6565 157.136 22.5082 156.547 21.1465C155.978 19.7847 155.693 18.2299 155.693 16.482C155.693 14.917 155.958 13.474 156.486 12.1529C157.035 10.8115 157.797 9.66317 158.772 8.70792C159.768 7.73235 160.927 6.98034 162.248 6.45191C163.569 5.90315 165.012 5.62877 166.577 5.62877C167.553 5.62877 168.498 5.75072 169.412 5.99461C170.347 6.2385 171.211 6.58402 172.004 7.03116Z" fill="#2C4073"/>
<path d="M177.483 25.5975C177.483 26.0447 177.33 26.4207 177.025 26.7255C176.741 27.0101 176.385 27.1523 175.958 27.1523C175.532 27.1523 175.166 27.0101 174.861 26.7255C174.576 26.4207 174.434 26.0447 174.434 25.5975V6.14704C174.434 5.69991 174.587 5.33407 174.891 5.04952C175.196 4.74466 175.562 4.59222 175.989 4.59222C176.436 4.59222 176.792 4.74466 177.056 5.04952C177.34 5.33407 177.483 5.69991 177.483 6.14704V25.5975Z" fill="#2C4073"/>
<path d="M183.178 25.5975C183.178 26.0447 183.036 26.4207 182.751 26.7255C182.467 27.0101 182.101 27.1523 181.654 27.1523C181.227 27.1523 180.861 27.0101 180.556 26.7255C180.272 26.4207 180.129 26.0447 180.129 25.5975V12.5492C180.129 12.1021 180.272 11.7363 180.556 11.4517C180.861 11.1469 181.227 10.9944 181.654 10.9944C182.101 10.9944 182.467 11.1469 182.751 11.4517C183.036 11.7363 183.178 12.1021 183.178 12.5492V25.5975ZM181.623 8.9823C181.034 8.9823 180.607 8.88068 180.343 8.67744C180.079 8.45387 179.946 8.08803 179.946 7.57992V7.09213C179.946 6.58402 180.089 6.22834 180.373 6.0251C180.658 5.82185 181.085 5.72023 181.654 5.72023C182.263 5.72023 182.7 5.83201 182.965 6.05558C183.229 6.25883 183.361 6.60434 183.361 7.09213V7.57992C183.361 8.10835 183.219 8.47419 182.934 8.67744C182.67 8.88068 182.233 8.9823 181.623 8.9823Z" fill="#2C4073"/>
<path d="M193.833 10.7505C195.276 10.7505 196.394 11.0554 197.186 11.6651C197.979 12.2545 198.528 13.0574 198.833 14.0736C199.158 15.0695 199.32 16.1873 199.32 17.4271V25.5975C199.32 26.0447 199.168 26.4207 198.863 26.7255C198.579 27.0101 198.223 27.1523 197.796 27.1523C197.349 27.1523 196.983 27.0101 196.699 26.7255C196.414 26.4207 196.272 26.0447 196.272 25.5975V17.4576C196.272 16.7259 196.17 16.0755 195.967 15.5064C195.764 14.917 195.408 14.4496 194.9 14.1041C194.412 13.7382 193.721 13.5553 192.827 13.5553C191.993 13.5553 191.262 13.7382 190.632 14.1041C190.002 14.4496 189.504 14.917 189.138 15.5064C188.792 16.0755 188.62 16.7259 188.62 17.4576V25.5975C188.62 26.0447 188.467 26.4207 188.162 26.7255C187.878 27.0101 187.522 27.1523 187.095 27.1523C186.648 27.1523 186.282 27.0101 185.998 26.7255C185.713 26.4207 185.571 26.0447 185.571 25.5975V12.6712C185.571 12.224 185.713 11.8582 185.998 11.5737C186.282 11.2688 186.648 11.1164 187.095 11.1164C187.522 11.1164 187.878 11.2688 188.162 11.5737C188.467 11.8582 188.62 12.224 188.62 12.6712V14.3784L188.071 14.6833C188.213 14.2362 188.457 13.789 188.803 13.3419C189.168 12.8744 189.605 12.4476 190.113 12.0615C190.622 11.655 191.191 11.3399 191.821 11.1164C192.451 10.8725 193.122 10.7505 193.833 10.7505Z" fill="#2C4073"/>
<path d="M204.711 25.5975C204.711 26.0447 204.569 26.4207 204.284 26.7255C204 27.0101 203.634 27.1523 203.187 27.1523C202.76 27.1523 202.394 27.0101 202.089 26.7255C201.805 26.4207 201.662 26.0447 201.662 25.5975V12.5492C201.662 12.1021 201.805 11.7363 202.089 11.4517C202.394 11.1469 202.76 10.9944 203.187 10.9944C203.634 10.9944 204 11.1469 204.284 11.4517C204.569 11.7363 204.711 12.1021 204.711 12.5492V25.5975ZM203.156 8.9823C202.567 8.9823 202.14 8.88068 201.876 8.67744C201.612 8.45387 201.48 8.08803 201.48 7.57992V7.09213C201.48 6.58402 201.622 6.22834 201.906 6.0251C202.191 5.82185 202.618 5.72023 203.187 5.72023C203.797 5.72023 204.234 5.83201 204.498 6.05558C204.762 6.25883 204.894 6.60434 204.894 7.09213V7.57992C204.894 8.10835 204.752 8.47419 204.467 8.67744C204.203 8.88068 203.766 8.9823 203.156 8.9823Z" fill="#2C4073"/>
<path d="M214.207 10.7505C215.305 10.7505 216.281 10.8725 217.134 11.1164C217.988 11.3399 218.648 11.6651 219.116 12.0919C219.604 12.4984 219.848 12.9761 219.848 13.5248C219.848 13.8703 219.746 14.1955 219.543 14.5004C219.339 14.7849 219.035 14.9272 218.628 14.9272C218.344 14.9272 218.1 14.8764 217.896 14.7748C217.713 14.6731 217.541 14.5512 217.378 14.4089C217.215 14.2667 217.012 14.1244 216.768 13.9821C216.545 13.8602 216.209 13.7585 215.762 13.6772C215.335 13.5959 214.949 13.5553 214.604 13.5553C213.527 13.5553 212.592 13.7992 211.799 14.287C211.027 14.7748 210.417 15.4353 209.97 16.2686C209.543 17.1019 209.33 18.047 209.33 19.1039C209.33 20.1607 209.543 21.1058 209.97 21.9391C210.417 22.7724 211.017 23.433 211.769 23.9208C212.541 24.4086 213.435 24.6524 214.451 24.6524C215.061 24.6524 215.559 24.6118 215.945 24.5305C216.331 24.4289 216.667 24.3069 216.951 24.1647C217.256 23.9817 217.51 23.7988 217.713 23.6159C217.937 23.4127 218.242 23.311 218.628 23.311C219.075 23.311 219.411 23.4533 219.634 23.7378C219.878 24.0021 220 24.3374 220 24.7439C220 25.191 219.726 25.628 219.177 26.0548C218.648 26.4613 217.937 26.7967 217.043 27.0609C216.148 27.3251 215.163 27.4572 214.086 27.4572C212.5 27.4572 211.118 27.0914 209.939 26.3597C208.781 25.628 207.876 24.6321 207.226 23.372C206.596 22.1119 206.281 20.6892 206.281 19.1039C206.281 17.4982 206.616 16.0755 207.287 14.8357C207.958 13.5756 208.893 12.5797 210.092 11.848C211.291 11.1164 212.663 10.7505 214.207 10.7505Z" fill="#2C4073"/>
<defs>
<clipPath id="clip0_28656_1956">
<rect width="32.0495" height="32.0495" fill="white"/>
</clipPath>
</defs>
</svg>
